Coordinates
version=1
nRows=6
nColumns=34
inDegrees=yes

Units are S.I. units (second, meters, Newtons, ...)
If the header above contains a line with 'inDegrees', this indicates whether rotational values are in degrees (yes) or radians (no).

endheader
time	pelvis_tilt	pelvis_list	pelvis_rotation	pelvis_tx	pelvis_ty	pelvis_tz	hip_flexion_r	hip_adduction_r	hip_rotation_r	knee_angle_r	ankle_angle_r	subtalar_angle_r	mtp_angle_r	hip_flexion_l	hip_adduction_l	hip_rotation_l	knee_angle_l	ankle_angle_l	subtalar_angle_l	mtp_angle_l	lumbar_extension	lumbar_bending	lumbar_rotation	arm_flex_r	arm_add_r	arm_rot_r	elbow_flex_r	pro_sup_r	arm_flex_l	arm_add_l	arm_rot_l	elbow_flex_l	pro_sup_l
      8.45833330	     -1.85948203	     -6.94002742	   -176.63553699	      0.13357856	      1.10714013	      0.15606236	     24.32883568	     -3.29051927	     -5.11089175	     11.07582629	    -10.22245208	      7.03811361	      0.00000000	    -14.42966315	      6.95568544	      2.03892764	     63.74118073	    -13.99808709	    -22.78853322	      0.00000000	    -14.41515565	    -10.44706584	    -18.80054035	    -29.02806093	     -9.78544994	     -5.97530485	    106.96573931	     96.68765116	     15.05510942	    -25.36280614	     21.80932391	    105.98686925	     81.49327075
      8.46666670	     -2.40694304	     -6.67810835	   -176.82782725	      0.13353097	      1.10073835	      0.15648223	     23.49767972	     -2.98423396	     -5.36456622	     12.34609186	    -10.39264126	      6.16487337	      0.00000000	    -13.34025826	      6.51284538	      2.13286698	     69.11480124	    -15.00386955	    -23.64022726	      0.00000000	    -14.97014501	     -9.76862538	    -17.69609984	    -28.28268617	     -9.84790984	     -6.26999638	    106.91192952	     96.74635112	     14.48434488	    -25.07594103	     22.60968147	    104.83483052	     81.43755969
      8.47500000	     -2.84944604	     -6.40734810	   -177.15940419	      0.13401997	      1.09287863	      0.15654749	     22.84496977	     -2.59738228	     -5.62304604	     14.09406903	    -10.09891341	      5.08579170	      0.00000000	    -11.99316032	      5.99268763	      2.00893638	     74.50609626	    -15.64523449	    -24.06349437	      0.00000000	    -15.53469783	     -9.07701418	    -16.43174094	    -27.48156025	     -9.99119847	     -6.52731297	    107.02211793	     96.79333492	     13.64770766	    -24.94161744	     23.20249037	    103.85654002	     81.43037097
      8.48333330	     -3.34063628	     -6.16416195	   -177.65967315	      0.13507038	      1.08472242	      0.15628828	     22.27471167	     -2.21080647	     -5.90724166	     16.40593158	     -9.20304344	      4.00902727	      0.00000000	    -10.54362772	      5.50542774	      1.76706710	     79.75715483	    -15.86231575	    -24.18014321	      0.00000000	    -16.29879191	     -8.49842564	    -15.04497889	    -26.40175598	    -10.19697292	     -6.68920832	    107.17182358	     96.81035889	     12.56786277	    -25.03992193	     23.53597936	    103.21734571	     81.45399977
      8.49166670	     -3.22420880	     -5.62963982	   -178.18068500	      0.13619442	      1.07563896	      0.15586795	     22.53818123	     -1.36862379	     -5.35357625	     19.31363073	     -7.56944778	      1.57211915	      0.00000000	     -8.34119911	      4.65228286	      1.34192645	     84.93888003	    -15.19870520	    -23.93821511	      0.00000000	    -16.40875927	     -7.39324732	    -13.40654134	    -25.81920836	    -10.73002449	     -6.81067581	    107.69099722	     96.88522538	     10.77213880	    -25.10735947	     23.66677004	    102.18974791	     81.58916785
      8.50000000	     -2.86418357	     -5.13651554	   -178.78879459	      0.13829925	      1.06695024	      0.15498338	     23.30121573	     -0.47537984	     -4.57303689	     22.84321193	     -4.95301999	     -1.11675152	      0.00000000	     -5.71308942	      3.78190585	      0.79833640	     89.90968290	    -14.12206699	    -23.14166458	      0.00000000	    -16.46160070	     -6.54045854	    -11.70877700	    -24.72846275	    -11.21693893	     -6.85241184	    107.99499514	     97.01009475	      9.07202802	    -25.18441356	     23.02497646	    101.00696408	     81.90417746
